<svg xmlns="http://www.w3.org/2000/svg" version="1.1" xmlns:xlink="http://www.w3.org/1999/xlink" xmlns:svgjs="http://svgjs.dev/svgjs" width="128" height="128" viewBox="0 0 128 128"><g transform="matrix(0.8046875,0,0,0.8046875,12.440009122057532,4.460450274894043)"><svg viewBox="0 0 51 59" data-background-color="#ff851b" preserveAspectRatio="xMidYMid meet" height="148" width="128" xmlns="http://www.w3.org/2000/svg" xmlns:xlink="http://www.w3.org/1999/xlink"><g id="tight-bounds" transform="matrix(1,0,0,1,0.029704221117142993,-0.0036289999999894462)"><svg viewBox="0 0 50.940591557765714 59.00725799999999" height="59.00725799999999" width="50.940591557765714"><g><svg viewBox="0 0 50.940591557765714 59.00725799999999" height="59.00725799999999" width="50.940591557765714"><g><svg viewBox="0 0 50.940591557765714 59.00725799999999" height="59.00725799999999" width="50.940591557765714"><g><svg viewBox="0 0 50.940591557765714 59.00725799999999" height="59.00725799999999" width="50.940591557765714"><g id="textblocktransform"><svg viewBox="0 0 50.940591557765714 59.00725799999999" height="59.00725799999999" width="50.940591557765714" id="textblock"><g><svg viewBox="0 0 50.940591557765714 59.00725799999999" height="59.00725799999999" width="50.940591557765714"><g><svg viewBox="0 0 50.940591557765714 59.00725799999999" height="59.00725799999999" width="50.940591557765714"><g><svg xmlns="http://www.w3.org/2000/svg" xmlns:xlink="http://www.w3.org/1999/xlink" version="1.1" x="0" y="0" viewBox="9.638 3.247 80.72399999999999 93.507" enable-background="new 0 0 100 100" xml:space="preserve" height="59.00725799999999" width="50.940591557765714" class="icon-icon-0" data-fill-palette-color="accent" id="icon-0"><g fill="#ffffff" data-fill-palette-color="accent"><g fill="#ffffff" data-fill-palette-color="accent"><polygon points="36.703,11.011 9.638,26.636 9.638,38.757 36.703,23.131 63.767,38.757 63.767,26.636   " fill="#000000" data-fill-palette-color="accent"></polygon></g><g fill="#ffffff" data-fill-palette-color="accent"><polygon points="63.298,89.092 36.233,73.467 36.233,61.348 63.298,76.973 90.362,61.348 90.362,73.467   " fill="#000000" data-fill-palette-color="accent"></polygon></g><g fill="#ffffff" data-fill-palette-color="accent"><polygon points="9.638,42.012 36.703,26.386 47.198,32.446 20.134,48.072 20.134,79.324 9.638,73.264   " fill="#000000" data-fill-palette-color="accent"></polygon></g><g fill="#ffffff" data-fill-palette-color="accent"><polygon points="77.083,18.872 50.018,3.247 39.522,9.307 66.586,24.932 66.586,56.184 77.083,50.124   " fill="#000000" data-fill-palette-color="accent"></polygon></g><g fill="#ffffff" data-fill-palette-color="accent"><polygon points="23.01,81.127 23.011,49.876 33.507,43.816 33.507,75.068 60.571,90.693 50.075,96.754   " fill="#000000" data-fill-palette-color="accent"></polygon></g><g fill="#ffffff" data-fill-palette-color="accent"><polygon points="90.362,58.092 90.362,26.84 79.866,20.78 79.866,52.031 52.802,67.658 63.298,73.719   " fill="#000000" data-fill-palette-color="accent"></polygon></g></g></svg></g></svg></g></svg></g></svg></g></svg></g></svg></g></svg></g><defs></defs></svg><rect width="50.940591557765714" height="59.00725799999999" fill="none" stroke="none" visibility="hidden"></rect></g></svg></g></svg>